<mxfile host="Electron" agent="Mozilla/5.0 (Windows NT 10.0; Win64; x64) AppleWebKit/537.36 (KHTML, like Gecko) draw.io/24.7.17 Chrome/128.0.6613.36 Electron/32.0.1 Safari/537.36" version="24.7.17">
  <diagram id="mQJm6dRPbALxwMX1b8uK" name="PÃ¡gina-1">
    <mxGraphModel dx="1593" dy="938" grid="1" gridSize="10" guides="1" tooltips="1" connect="1" arrows="1" fold="1" page="1" pageScale="1" pageWidth="827" pageHeight="1169" math="0" shadow="0">
      <root>
        <mxCell id="0" />
        <mxCell id="1" parent="0" />
        <mxCell id="eDyGlzjniZGwvKtLXckb-8" style="edgeStyle=orthogonalEdgeStyle;rounded=0;orthogonalLoop=1;jettySize=auto;html=1;exitX=0.5;exitY=1;exitDx=0;exitDy=0;entryX=0.5;entryY=0;entryDx=0;entryDy=0;startArrow=none;startFill=0;endArrow=none;endFill=0;" edge="1" parent="1" source="eDyGlzjniZGwvKtLXckb-1" target="eDyGlzjniZGwvKtLXckb-2">
          <mxGeometry relative="1" as="geometry" />
        </mxCell>
        <mxCell id="eDyGlzjniZGwvKtLXckb-1" value="hospital" style="whiteSpace=wrap;html=1;align=center;" vertex="1" parent="1">
          <mxGeometry x="364" y="110" width="100" height="40" as="geometry" />
        </mxCell>
        <mxCell id="eDyGlzjniZGwvKtLXckb-9" style="rounded=0;orthogonalLoop=1;jettySize=auto;html=1;exitX=0.5;exitY=1;exitDx=0;exitDy=0;entryX=0.5;entryY=0;entryDx=0;entryDy=0;endArrow=ERoneToMany;endFill=0;" edge="1" parent="1" source="eDyGlzjniZGwvKtLXckb-2" target="eDyGlzjniZGwvKtLXckb-3">
          <mxGeometry relative="1" as="geometry" />
        </mxCell>
        <mxCell id="eDyGlzjniZGwvKtLXckb-2" value="has" style="shape=rhombus;perimeter=rhombusPerimeter;whiteSpace=wrap;html=1;align=center;" vertex="1" parent="1">
          <mxGeometry x="354" y="280" width="120" height="60" as="geometry" />
        </mxCell>
        <mxCell id="eDyGlzjniZGwvKtLXckb-3" value="doctor" style="whiteSpace=wrap;html=1;align=center;" vertex="1" parent="1">
          <mxGeometry x="364" y="565" width="100" height="40" as="geometry" />
        </mxCell>
        <mxCell id="eDyGlzjniZGwvKtLXckb-36" style="edgeStyle=none;shape=connector;rounded=0;orthogonalLoop=1;jettySize=auto;html=1;exitX=0.5;exitY=0;exitDx=0;exitDy=0;entryX=0.5;entryY=1;entryDx=0;entryDy=0;strokeColor=default;align=center;verticalAlign=middle;fontFamily=Helvetica;fontSize=11;fontColor=default;labelBackgroundColor=default;endArrow=none;endFill=0;" edge="1" parent="1" source="eDyGlzjniZGwvKtLXckb-4" target="eDyGlzjniZGwvKtLXckb-3">
          <mxGeometry relative="1" as="geometry" />
        </mxCell>
        <mxCell id="eDyGlzjniZGwvKtLXckb-4" value="id_doctor" style="ellipse;whiteSpace=wrap;html=1;align=center;fontStyle=4;" vertex="1" parent="1">
          <mxGeometry x="364" y="700" width="100" height="40" as="geometry" />
        </mxCell>
        <mxCell id="eDyGlzjniZGwvKtLXckb-24" style="edgeStyle=none;shape=connector;rounded=0;orthogonalLoop=1;jettySize=auto;html=1;exitX=0.5;exitY=1;exitDx=0;exitDy=0;entryX=0.5;entryY=0;entryDx=0;entryDy=0;strokeColor=default;align=center;verticalAlign=middle;fontFamily=Helvetica;fontSize=11;fontColor=default;labelBackgroundColor=default;endArrow=none;endFill=0;" edge="1" parent="1" source="eDyGlzjniZGwvKtLXckb-5" target="eDyGlzjniZGwvKtLXckb-1">
          <mxGeometry relative="1" as="geometry" />
        </mxCell>
        <mxCell id="eDyGlzjniZGwvKtLXckb-5" value="id_hospital" style="ellipse;whiteSpace=wrap;html=1;align=center;fontStyle=4;" vertex="1" parent="1">
          <mxGeometry x="363" y="20" width="100" height="40" as="geometry" />
        </mxCell>
        <mxCell id="eDyGlzjniZGwvKtLXckb-21" style="edgeStyle=none;shape=connector;rounded=0;orthogonalLoop=1;jettySize=auto;html=1;exitX=1;exitY=0.5;exitDx=0;exitDy=0;entryX=0;entryY=0.5;entryDx=0;entryDy=0;strokeColor=default;align=center;verticalAlign=middle;fontFamily=Helvetica;fontSize=11;fontColor=default;labelBackgroundColor=default;endArrow=none;endFill=0;" edge="1" parent="1" source="eDyGlzjniZGwvKtLXckb-6" target="eDyGlzjniZGwvKtLXckb-1">
          <mxGeometry relative="1" as="geometry" />
        </mxCell>
        <mxCell id="eDyGlzjniZGwvKtLXckb-6" value="name" style="ellipse;whiteSpace=wrap;html=1;align=center;" vertex="1" parent="1">
          <mxGeometry x="150" y="80" width="100" height="40" as="geometry" />
        </mxCell>
        <mxCell id="eDyGlzjniZGwvKtLXckb-22" style="edgeStyle=none;shape=connector;rounded=0;orthogonalLoop=1;jettySize=auto;html=1;exitX=1;exitY=0.5;exitDx=0;exitDy=0;entryX=0;entryY=0.5;entryDx=0;entryDy=0;strokeColor=default;align=center;verticalAlign=middle;fontFamily=Helvetica;fontSize=11;fontColor=default;labelBackgroundColor=default;endArrow=none;endFill=0;" edge="1" parent="1" source="eDyGlzjniZGwvKtLXckb-7" target="eDyGlzjniZGwvKtLXckb-1">
          <mxGeometry relative="1" as="geometry" />
        </mxCell>
        <mxCell id="eDyGlzjniZGwvKtLXckb-7" value="address" style="ellipse;whiteSpace=wrap;html=1;align=center;" vertex="1" parent="1">
          <mxGeometry x="150" y="140" width="100" height="40" as="geometry" />
        </mxCell>
        <mxCell id="eDyGlzjniZGwvKtLXckb-39" style="edgeStyle=none;shape=connector;rounded=0;orthogonalLoop=1;jettySize=auto;html=1;exitX=1;exitY=0.5;exitDx=0;exitDy=0;entryX=0;entryY=0.5;entryDx=0;entryDy=0;strokeColor=default;align=center;verticalAlign=middle;fontFamily=Helvetica;fontSize=11;fontColor=default;labelBackgroundColor=default;endArrow=none;endFill=0;" edge="1" parent="1" source="eDyGlzjniZGwvKtLXckb-10" target="eDyGlzjniZGwvKtLXckb-3">
          <mxGeometry relative="1" as="geometry" />
        </mxCell>
        <mxCell id="eDyGlzjniZGwvKtLXckb-10" value="name" style="ellipse;whiteSpace=wrap;html=1;align=center;" vertex="1" parent="1">
          <mxGeometry x="150" y="500" width="100" height="40" as="geometry" />
        </mxCell>
        <mxCell id="eDyGlzjniZGwvKtLXckb-38" style="edgeStyle=none;shape=connector;rounded=0;orthogonalLoop=1;jettySize=auto;html=1;exitX=1;exitY=0.5;exitDx=0;exitDy=0;entryX=0;entryY=0.5;entryDx=0;entryDy=0;strokeColor=default;align=center;verticalAlign=middle;fontFamily=Helvetica;fontSize=11;fontColor=default;labelBackgroundColor=default;endArrow=none;endFill=0;" edge="1" parent="1" source="eDyGlzjniZGwvKtLXckb-11" target="eDyGlzjniZGwvKtLXckb-3">
          <mxGeometry relative="1" as="geometry" />
        </mxCell>
        <mxCell id="eDyGlzjniZGwvKtLXckb-11" value="last_name" style="ellipse;whiteSpace=wrap;html=1;align=center;" vertex="1" parent="1">
          <mxGeometry x="150" y="565" width="100" height="40" as="geometry" />
        </mxCell>
        <mxCell id="eDyGlzjniZGwvKtLXckb-23" style="edgeStyle=none;shape=connector;rounded=0;orthogonalLoop=1;jettySize=auto;html=1;exitX=1;exitY=0.5;exitDx=0;exitDy=0;entryX=0;entryY=0.5;entryDx=0;entryDy=0;strokeColor=default;align=center;verticalAlign=middle;fontFamily=Helvetica;fontSize=11;fontColor=default;labelBackgroundColor=default;endArrow=none;endFill=0;" edge="1" parent="1" source="eDyGlzjniZGwvKtLXckb-12" target="eDyGlzjniZGwvKtLXckb-1">
          <mxGeometry relative="1" as="geometry" />
        </mxCell>
        <mxCell id="eDyGlzjniZGwvKtLXckb-12" value="city" style="ellipse;whiteSpace=wrap;html=1;align=center;" vertex="1" parent="1">
          <mxGeometry x="150" y="200" width="100" height="40" as="geometry" />
        </mxCell>
        <mxCell id="eDyGlzjniZGwvKtLXckb-25" style="edgeStyle=none;shape=connector;rounded=0;orthogonalLoop=1;jettySize=auto;html=1;exitX=0;exitY=0.5;exitDx=0;exitDy=0;entryX=1;entryY=0.5;entryDx=0;entryDy=0;strokeColor=default;align=center;verticalAlign=middle;fontFamily=Helvetica;fontSize=11;fontColor=default;labelBackgroundColor=default;endArrow=none;endFill=0;" edge="1" parent="1" source="eDyGlzjniZGwvKtLXckb-13" target="eDyGlzjniZGwvKtLXckb-1">
          <mxGeometry relative="1" as="geometry" />
        </mxCell>
        <mxCell id="eDyGlzjniZGwvKtLXckb-13" value="phone_number" style="ellipse;whiteSpace=wrap;html=1;align=center;" vertex="1" parent="1">
          <mxGeometry x="560" y="20" width="100" height="40" as="geometry" />
        </mxCell>
        <mxCell id="eDyGlzjniZGwvKtLXckb-26" style="edgeStyle=none;shape=connector;rounded=0;orthogonalLoop=1;jettySize=auto;html=1;exitX=0;exitY=0.5;exitDx=0;exitDy=0;entryX=1;entryY=0.5;entryDx=0;entryDy=0;strokeColor=default;align=center;verticalAlign=middle;fontFamily=Helvetica;fontSize=11;fontColor=default;labelBackgroundColor=default;endArrow=none;endFill=0;" edge="1" parent="1" source="eDyGlzjniZGwvKtLXckb-14" target="eDyGlzjniZGwvKtLXckb-1">
          <mxGeometry relative="1" as="geometry" />
        </mxCell>
        <mxCell id="eDyGlzjniZGwvKtLXckb-14" value="email" style="ellipse;whiteSpace=wrap;html=1;align=center;" vertex="1" parent="1">
          <mxGeometry x="560" y="80" width="100" height="40" as="geometry" />
        </mxCell>
        <mxCell id="eDyGlzjniZGwvKtLXckb-27" style="edgeStyle=none;shape=connector;rounded=0;orthogonalLoop=1;jettySize=auto;html=1;exitX=0;exitY=0.5;exitDx=0;exitDy=0;entryX=1;entryY=0.5;entryDx=0;entryDy=0;strokeColor=default;align=center;verticalAlign=middle;fontFamily=Helvetica;fontSize=11;fontColor=default;labelBackgroundColor=default;endArrow=none;endFill=0;" edge="1" parent="1" source="eDyGlzjniZGwvKtLXckb-15" target="eDyGlzjniZGwvKtLXckb-1">
          <mxGeometry relative="1" as="geometry" />
        </mxCell>
        <mxCell id="eDyGlzjniZGwvKtLXckb-15" value="password" style="ellipse;whiteSpace=wrap;html=1;align=center;" vertex="1" parent="1">
          <mxGeometry x="560" y="140" width="100" height="40" as="geometry" />
        </mxCell>
        <mxCell id="eDyGlzjniZGwvKtLXckb-28" style="edgeStyle=none;shape=connector;rounded=0;orthogonalLoop=1;jettySize=auto;html=1;exitX=0;exitY=0.5;exitDx=0;exitDy=0;entryX=1;entryY=0.5;entryDx=0;entryDy=0;strokeColor=default;align=center;verticalAlign=middle;fontFamily=Helvetica;fontSize=11;fontColor=default;labelBackgroundColor=default;endArrow=none;endFill=0;" edge="1" parent="1" source="eDyGlzjniZGwvKtLXckb-16" target="eDyGlzjniZGwvKtLXckb-1">
          <mxGeometry relative="1" as="geometry" />
        </mxCell>
        <mxCell id="eDyGlzjniZGwvKtLXckb-16" value="image" style="ellipse;whiteSpace=wrap;html=1;align=center;" vertex="1" parent="1">
          <mxGeometry x="560" y="210" width="100" height="40" as="geometry" />
        </mxCell>
        <mxCell id="eDyGlzjniZGwvKtLXckb-18" style="rounded=0;orthogonalLoop=1;jettySize=auto;html=1;exitX=1;exitY=0.5;exitDx=0;exitDy=0;entryX=0;entryY=0.5;entryDx=0;entryDy=0;endArrow=none;endFill=0;" edge="1" parent="1" source="eDyGlzjniZGwvKtLXckb-17" target="eDyGlzjniZGwvKtLXckb-1">
          <mxGeometry relative="1" as="geometry" />
        </mxCell>
        <mxCell id="eDyGlzjniZGwvKtLXckb-17" value="description" style="ellipse;whiteSpace=wrap;html=1;align=center;" vertex="1" parent="1">
          <mxGeometry x="150" y="20" width="100" height="40" as="geometry" />
        </mxCell>
        <mxCell id="eDyGlzjniZGwvKtLXckb-35" style="edgeStyle=none;shape=connector;rounded=0;orthogonalLoop=1;jettySize=auto;html=1;exitX=0;exitY=0.5;exitDx=0;exitDy=0;entryX=1;entryY=0.5;entryDx=0;entryDy=0;strokeColor=default;align=center;verticalAlign=middle;fontFamily=Helvetica;fontSize=11;fontColor=default;labelBackgroundColor=default;endArrow=none;endFill=0;" edge="1" parent="1" source="eDyGlzjniZGwvKtLXckb-29" target="eDyGlzjniZGwvKtLXckb-3">
          <mxGeometry relative="1" as="geometry" />
        </mxCell>
        <mxCell id="eDyGlzjniZGwvKtLXckb-29" value="speciality" style="ellipse;whiteSpace=wrap;html=1;align=center;fontFamily=Helvetica;fontSize=11;fontColor=default;labelBackgroundColor=default;" vertex="1" parent="1">
          <mxGeometry x="560" y="500" width="100" height="40" as="geometry" />
        </mxCell>
        <mxCell id="eDyGlzjniZGwvKtLXckb-37" style="edgeStyle=none;shape=connector;rounded=0;orthogonalLoop=1;jettySize=auto;html=1;exitX=1;exitY=0.5;exitDx=0;exitDy=0;entryX=0;entryY=0.5;entryDx=0;entryDy=0;strokeColor=default;align=center;verticalAlign=middle;fontFamily=Helvetica;fontSize=11;fontColor=default;labelBackgroundColor=default;endArrow=none;endFill=0;" edge="1" parent="1" source="eDyGlzjniZGwvKtLXckb-30" target="eDyGlzjniZGwvKtLXckb-3">
          <mxGeometry relative="1" as="geometry" />
        </mxCell>
        <mxCell id="eDyGlzjniZGwvKtLXckb-30" value="description" style="ellipse;whiteSpace=wrap;html=1;align=center;fontFamily=Helvetica;fontSize=11;fontColor=default;labelBackgroundColor=default;" vertex="1" parent="1">
          <mxGeometry x="150" y="630" width="100" height="40" as="geometry" />
        </mxCell>
        <mxCell id="eDyGlzjniZGwvKtLXckb-34" style="edgeStyle=none;shape=connector;rounded=0;orthogonalLoop=1;jettySize=auto;html=1;exitX=0;exitY=0.5;exitDx=0;exitDy=0;entryX=1;entryY=0.5;entryDx=0;entryDy=0;strokeColor=default;align=center;verticalAlign=middle;fontFamily=Helvetica;fontSize=11;fontColor=default;labelBackgroundColor=default;endArrow=none;endFill=0;" edge="1" parent="1" source="eDyGlzjniZGwvKtLXckb-31" target="eDyGlzjniZGwvKtLXckb-3">
          <mxGeometry relative="1" as="geometry" />
        </mxCell>
        <mxCell id="eDyGlzjniZGwvKtLXckb-31" value="image" style="ellipse;whiteSpace=wrap;html=1;align=center;fontFamily=Helvetica;fontSize=11;fontColor=default;labelBackgroundColor=default;" vertex="1" parent="1">
          <mxGeometry x="560" y="565" width="100" height="40" as="geometry" />
        </mxCell>
        <mxCell id="eDyGlzjniZGwvKtLXckb-33" style="edgeStyle=none;shape=connector;rounded=0;orthogonalLoop=1;jettySize=auto;html=1;exitX=0;exitY=0.5;exitDx=0;exitDy=0;entryX=1;entryY=0.5;entryDx=0;entryDy=0;strokeColor=default;align=center;verticalAlign=middle;fontFamily=Helvetica;fontSize=11;fontColor=default;labelBackgroundColor=default;endArrow=none;endFill=0;" edge="1" parent="1" source="eDyGlzjniZGwvKtLXckb-32" target="eDyGlzjniZGwvKtLXckb-3">
          <mxGeometry relative="1" as="geometry" />
        </mxCell>
        <mxCell id="eDyGlzjniZGwvKtLXckb-32" value="university_degree" style="ellipse;whiteSpace=wrap;html=1;align=center;fontFamily=Helvetica;fontSize=11;fontColor=default;labelBackgroundColor=default;" vertex="1" parent="1">
          <mxGeometry x="560" y="630" width="100" height="40" as="geometry" />
        </mxCell>
      </root>
    </mxGraphModel>
  </diagram>
</mxfile>
